<svg width="140" height="34" viewBox="0 0 140 34" fill="none" xmlns="http://www.w3.org/2000/svg">
<rect width="34" height="34" rx="5.15789" fill="#3A66FF"/>
<path d="M6.64258 21.6218V13.5479H9.82799C10.4404 13.5479 10.9621 13.6648 11.3931 13.8988C11.8241 14.13 12.1527 14.452 12.3787 14.8646C12.6073 15.2746 12.7217 15.7477 12.7217 16.2839C12.7217 16.82 12.606 17.2931 12.3747 17.7031C12.1435 18.1131 11.8084 18.4324 11.3694 18.6611C10.9332 18.8898 10.4049 19.0041 9.78463 19.0041H7.75432V17.6361H9.50866C9.83719 17.6361 10.1079 17.5796 10.3208 17.4666C10.5363 17.3509 10.6966 17.1919 10.8017 16.9896C10.9095 16.7845 10.9634 16.5493 10.9634 16.2839C10.9634 16.0158 10.9095 15.7819 10.8017 15.5821C10.6966 15.3798 10.5363 15.2234 10.3208 15.113C10.1053 15 9.83193 14.9435 9.50078 14.9435H8.34961V21.6218H6.64258Z" fill="white"/>
<path d="M13.7831 21.6218V20.3918L16.6571 17.7307C16.9015 17.4942 17.1065 17.2813 17.2721 17.0921C17.4403 16.9028 17.5678 16.7175 17.6545 16.5362C17.7413 16.3522 17.7846 16.1538 17.7846 15.9409C17.7846 15.7043 17.7307 15.5007 17.623 15.3298C17.5152 15.1564 17.368 15.0236 17.1814 14.9316C16.9948 14.837 16.7833 14.7897 16.5467 14.7897C16.2997 14.7897 16.0842 14.8397 15.9002 14.9395C15.7162 15.0394 15.5743 15.1826 15.4744 15.3692C15.3745 15.5559 15.3246 15.7779 15.3246 16.0355H13.7043C13.7043 15.5072 13.8239 15.0486 14.0631 14.6596C14.3022 14.2706 14.6373 13.9697 15.0683 13.7568C15.4994 13.5439 15.9961 13.4375 16.5586 13.4375C17.1368 13.4375 17.6401 13.54 18.0685 13.745C18.4995 13.9474 18.8346 14.2286 19.0738 14.5887C19.3129 14.9487 19.4325 15.3614 19.4325 15.8266C19.4325 16.1314 19.3721 16.4324 19.2512 16.7294C19.1329 17.0263 18.9213 17.3562 18.6165 17.7189C18.3116 18.079 17.8819 18.5113 17.3273 19.0159L16.1486 20.171V20.2262H19.539V21.6218H13.7831Z" fill="white"/>
<path d="M20.8232 21.6218V13.5479H24.0086C24.6183 13.5479 25.1387 13.657 25.5698 13.8751C26.0034 14.0906 26.3333 14.3968 26.5593 14.7937C26.7879 15.1879 26.9023 15.6518 26.9023 16.1853C26.9023 16.7215 26.7866 17.1827 26.5553 17.5691C26.3241 17.9528 25.989 18.2472 25.5501 18.4522C25.1138 18.6572 24.5855 18.7597 23.9652 18.7597H21.8324V17.3877H23.6893C24.0152 17.3877 24.2859 17.343 24.5014 17.2537C24.7169 17.1643 24.8772 17.0303 24.9824 16.8516C25.0901 16.6728 25.144 16.4508 25.144 16.1853C25.144 15.9172 25.0901 15.6912 24.9824 15.5072C24.8772 15.3233 24.7156 15.184 24.4974 15.0893C24.2819 14.9921 24.0099 14.9435 23.6814 14.9435H22.5302V21.6218H20.8232ZM25.1834 17.9475L27.1901 21.6218H25.3056L23.3423 17.9475H25.1834Z" fill="white"/>
<path d="M47.3906 11.7266H51.9375C53.0625 11.7266 53.974 12.0781 54.6719 12.7812C55.375 13.4844 55.7266 14.4036 55.7266 15.5391C55.7266 16.6536 55.3646 17.5599 54.6406 18.2578C53.9219 18.9557 52.9922 19.3047 51.8516 19.3047H49.4062V23H47.3906V11.7266ZM49.4062 13.4141V17.6328H51.3984C52.1224 17.6328 52.6823 17.4505 53.0781 17.0859C53.4792 16.7214 53.6797 16.2057 53.6797 15.5391C53.6797 14.8516 53.4818 14.3255 53.0859 13.9609C52.6953 13.5964 52.1354 13.4141 51.4062 13.4141H49.4062ZM57.8281 23V11.1484H59.7656V23H57.8281ZM65.1406 21.6172C65.724 21.6172 66.2109 21.4505 66.6016 21.1172C66.9922 20.7786 67.1875 20.362 67.1875 19.8672V19.1875L65.2578 19.3125C64.1953 19.3802 63.6641 19.7656 63.6641 20.4688C63.6641 20.8229 63.7995 21.1042 64.0703 21.3125C64.3464 21.5156 64.7031 21.6172 65.1406 21.6172ZM64.5703 23.1406C63.737 23.1406 63.0573 22.9062 62.5312 22.4375C62.0052 21.9688 61.7422 21.349 61.7422 20.5781C61.7422 19.8073 62.0208 19.2031 62.5781 18.7656C63.1406 18.3281 63.9427 18.0781 64.9844 18.0156L67.1875 17.8828V17.1641C67.1875 16.7422 67.0495 16.4193 66.7734 16.1953C66.4974 15.9714 66.099 15.8594 65.5781 15.8594C65.1302 15.8594 64.7604 15.9375 64.4688 16.0938C64.1771 16.2448 63.987 16.4635 63.8984 16.75H62.0703C62.1484 15.9948 62.513 15.3958 63.1641 14.9531C63.8203 14.5052 64.6562 14.2812 65.6719 14.2812C66.7656 14.2812 67.6094 14.5339 68.2031 15.0391C68.8021 15.5443 69.1016 16.2526 69.1016 17.1641V23H67.2344V21.8281H67.1016C66.862 22.2396 66.5182 22.5625 66.0703 22.7969C65.6276 23.026 65.1276 23.1406 64.5703 23.1406ZM78.8203 17.3281H76.9766C76.8828 16.8958 76.6745 16.5521 76.3516 16.2969C76.0286 16.0365 75.6094 15.9062 75.0938 15.9062C74.4271 15.9062 73.9062 16.151 73.5312 16.6406C73.1615 17.1302 72.9766 17.8177 72.9766 18.7031C72.9766 19.599 73.1641 20.2969 73.5391 20.7969C73.9141 21.2969 74.4323 21.5469 75.0938 21.5469C75.599 21.5469 76.013 21.4297 76.3359 21.1953C76.6641 20.9609 76.8776 20.6224 76.9766 20.1797H78.8203C78.7109 21.0911 78.3281 21.8177 77.6719 22.3594C77.0208 22.901 76.1641 23.1719 75.1016 23.1719C73.8151 23.1719 72.8125 22.7786 72.0938 21.9922C71.375 21.2057 71.0156 20.1094 71.0156 18.7031C71.0156 17.3125 71.375 16.2292 72.0938 15.4531C72.8125 14.6719 73.8125 14.2812 75.0938 14.2812C76.1667 14.2812 77.0286 14.5599 77.6797 15.1172C78.3359 15.6693 78.7161 16.4062 78.8203 17.3281ZM84.2578 15.8203C83.6797 15.8203 83.2031 16.0104 82.8281 16.3906C82.4531 16.7708 82.2448 17.2734 82.2031 17.8984H86.2266C86.2057 17.263 86.0182 16.7578 85.6641 16.3828C85.3099 16.0078 84.8411 15.8203 84.2578 15.8203ZM86.2422 20.6484H88.0781C87.8958 21.4297 87.4661 22.0469 86.7891 22.5C86.1172 22.9479 85.2812 23.1719 84.2812 23.1719C83.026 23.1719 82.0391 22.7812 81.3203 22C80.6068 21.2135 80.25 20.1328 80.25 18.7578C80.25 17.3828 80.6094 16.2943 81.3281 15.4922C82.0469 14.6849 83.026 14.2812 84.2656 14.2812C85.4844 14.2812 86.4375 14.6641 87.125 15.4297C87.8177 16.1901 88.1641 17.2448 88.1641 18.5938V19.2188H82.1953V19.3203C82.2214 20.0339 82.4245 20.599 82.8047 21.0156C83.1901 21.4271 83.7005 21.6328 84.3359 21.6328C85.3151 21.6328 85.9505 21.3047 86.2422 20.6484ZM89.9922 15.0234C89.9922 13.9714 90.3568 13.112 91.0859 12.4453C91.8203 11.7786 92.7656 11.4453 93.9219 11.4453C95.0365 11.4453 95.9531 11.75 96.6719 12.3594C97.3958 12.9688 97.7578 13.7448 97.7578 14.6875C97.7578 15.2917 97.5755 15.8906 97.2109 16.4844C96.8464 17.0729 96.1849 17.8411 95.2266 18.7891L92.8672 21.1562V21.2891H97.9297V23H90.1016V21.6016L93.8594 17.7578C94.6302 16.9766 95.1432 16.3906 95.3984 16C95.6536 15.6042 95.7812 15.2083 95.7812 14.8125C95.7812 14.3177 95.599 13.9089 95.2344 13.5859C94.875 13.263 94.4167 13.1016 93.8594 13.1016C93.2708 13.1016 92.7943 13.2786 92.4297 13.6328C92.0651 13.987 91.8828 14.4505 91.8828 15.0234V15.0547H89.9922V15.0234ZM101.477 23.1641C101.112 23.1641 100.812 23.0469 100.578 22.8125C100.344 22.5781 100.227 22.2839 100.227 21.9297C100.227 21.5703 100.344 21.276 100.578 21.0469C100.812 20.8125 101.112 20.6953 101.477 20.6953C101.846 20.6953 102.146 20.8125 102.375 21.0469C102.609 21.276 102.727 21.5703 102.727 21.9297C102.727 22.2839 102.609 22.5781 102.375 22.8125C102.146 23.0469 101.846 23.1641 101.477 23.1641ZM107.516 13.3984V17.1719H109.844C110.484 17.1719 110.979 17.0078 111.328 16.6797C111.682 16.3516 111.859 15.888 111.859 15.2891C111.859 14.7005 111.674 14.2396 111.305 13.9062C110.94 13.5677 110.438 13.3984 109.797 13.3984H107.516ZM107.516 18.7734V23H105.5V11.7266H110.078C111.26 11.7266 112.198 12.0443 112.891 12.6797C113.583 13.3099 113.93 14.1667 113.93 15.25C113.93 16 113.742 16.6641 113.367 17.2422C112.992 17.8151 112.471 18.2214 111.805 18.4609L114.266 23H111.961L109.75 18.7734H107.516ZM119.492 15.8203C118.914 15.8203 118.438 16.0104 118.062 16.3906C117.688 16.7708 117.479 17.2734 117.438 17.8984H121.461C121.44 17.263 121.253 16.7578 120.898 16.3828C120.544 16.0078 120.076 15.8203 119.492 15.8203ZM121.477 20.6484H123.312C123.13 21.4297 122.701 22.0469 122.023 22.5C121.352 22.9479 120.516 23.1719 119.516 23.1719C118.26 23.1719 117.273 22.7812 116.555 22C115.841 21.2135 115.484 20.1328 115.484 18.7578C115.484 17.3828 115.844 16.2943 116.562 15.4922C117.281 14.6849 118.26 14.2812 119.5 14.2812C120.719 14.2812 121.672 14.6641 122.359 15.4297C123.052 16.1901 123.398 17.2448 123.398 18.5938V19.2188H117.43V19.3203C117.456 20.0339 117.659 20.599 118.039 21.0156C118.424 21.4271 118.935 21.6328 119.57 21.6328C120.549 21.6328 121.185 21.3047 121.477 20.6484ZM125.148 16.8984C125.148 16.1276 125.466 15.5 126.102 15.0156C126.737 14.526 127.56 14.2812 128.57 14.2812C129.586 14.2812 130.396 14.4974 131 14.9297C131.609 15.3568 131.948 15.9583 132.016 16.7344H130.195C130.122 16.4271 129.945 16.1875 129.664 16.0156C129.388 15.8385 129.026 15.75 128.578 15.75C128.13 15.75 127.76 15.8464 127.469 16.0391C127.177 16.2318 127.031 16.4818 127.031 16.7891C127.031 17.0286 127.133 17.2266 127.336 17.3828C127.544 17.5391 127.865 17.6667 128.297 17.7656L129.805 18.1094C130.628 18.2969 131.232 18.5755 131.617 18.9453C132.003 19.3151 132.195 19.8125 132.195 20.4375C132.195 21.2552 131.857 21.9167 131.18 22.4219C130.503 22.9219 129.628 23.1719 128.555 23.1719C127.487 23.1719 126.633 22.9531 125.992 22.5156C125.357 22.0781 125.003 21.4714 124.93 20.6953H126.844C126.938 21.0182 127.133 21.2682 127.43 21.4453C127.732 21.6172 128.122 21.7031 128.602 21.7031C129.091 21.7031 129.49 21.6068 129.797 21.4141C130.104 21.2161 130.258 20.9583 130.258 20.6406C130.258 20.1667 129.865 19.8438 129.078 19.6719L127.562 19.3203C126.74 19.1328 126.13 18.8438 125.734 18.4531C125.344 18.0573 125.148 17.5391 125.148 16.8984ZM134.711 12.3594H136.641V14.5078H138.469V16.0547H136.641V20.25C136.641 20.6719 136.734 20.9818 136.922 21.1797C137.109 21.3724 137.406 21.4688 137.812 21.4688C137.99 21.4688 138.208 21.4557 138.469 21.4297V22.9453C138.146 23.0078 137.807 23.0391 137.453 23.0391C136.474 23.0391 135.771 22.8594 135.344 22.5C134.922 22.1406 134.711 21.5469 134.711 20.7188V16.0547H133.359V14.5078H134.711V12.3594Z" fill="white"/>
</svg>
